<svg width="100" height="100" viewBox="0 0 100 100" fill="none" xmlns="http://www.w3.org/2000/svg">
<path d="M50 100C77.6144 100 100 77.6144 100 50C100 22.3858 77.6144 0 50 0C22.3858 0 0 22.3858 0 50C0 77.6144 22.3858 100 50 100Z" fill="white"/>
<path d="M50 100C77.6141 100 100 77.6141 100 50C100 43.8838 98.9 38.0251 96.89 32.6087H3.10995C1.10019 38.0251 0 43.8838 0 50C0 77.6141 22.386 100 50 100Z" fill="#0052B4"/>
<path d="M50 100C71.4982 100 89.8254 86.4313 96.89 67.3913H3.10999C10.1746 86.4313 28.5018 100 50 100Z" fill="#D80027"/>
<path d="M12.9294 28.261V53.2036C12.9294 67.3918 31.4649 71.7392 31.4649 71.7392C31.4649 71.7392 50 67.3918 50 53.2036V28.261H12.9294Z" fill="white"/>
<path d="M17.277 28.261V53.2036C17.277 54.8692 17.6469 56.4423 18.3797 57.9172C25.652 57.9172 36.5215 57.9172 44.5489 57.9172C45.2817 56.4426 45.6517 54.8692 45.6517 53.2036V28.261H17.277Z" fill="#D80027"/>
<path d="M40.1603 45.652H33.6387V41.3043H37.9864V36.9564H33.6387V32.6087H29.2908V36.9564H24.9432V41.3043H29.2908V45.652H22.7689V50H29.2908V54.3477H33.6387V50H40.1603V45.652Z" fill="white"/>
<path d="M24.3107 63.9861C27.1123 65.7469 29.9908 66.7692 31.4647 67.2238C32.9382 66.7695 35.8167 65.7469 38.6185 63.9861C41.4439 62.2105 43.4244 60.1795 44.549 57.9169C43.3088 57.0395 41.7952 56.5218 40.1603 56.5218C39.5649 56.5218 38.9867 56.5923 38.4305 56.7218C37.2523 54.0443 34.5775 52.1738 31.4647 52.1738C28.3521 52.1738 25.677 54.0443 24.4989 56.7218C23.9429 56.5923 23.3644 56.5218 22.7692 56.5218C21.1343 56.5218 19.6208 57.0395 18.3804 57.9169C19.5044 60.1795 21.4851 62.2102 24.3107 63.9861Z" fill="#0052B4"/>
</svg>
