<svg width="100" height="100" viewBox="0 0 100 100" fill="none" xmlns="http://www.w3.org/2000/svg">
<path d="M50 100C77.6144 100 100 77.6144 100 50C100 22.3858 77.6144 0 50 0C22.3858 0 0 22.3858 0 50C0 77.6144 22.3858 100 50 100Z" fill="#D80027"/>
<path d="M47.9525 40.8567L52.0551 46.51L58.6992 44.3556L54.5902 50.0041L58.692 55.6572L52.0505 53.4946L47.9418 59.1431L47.9459 52.1585L41.3041 49.9961L47.9484 47.8418L47.9525 40.8567Z" fill="white"/>
<path d="M36.7566 64.1305C28.9528 64.1305 22.6262 57.8038 22.6262 50C22.6262 42.1962 28.9528 35.8695 36.7566 35.8695C39.1899 35.8695 41.4792 36.4849 43.4782 37.5679C40.3425 34.5013 36.0538 32.6085 31.322 32.6085C21.7168 32.6085 13.9307 40.3949 13.9307 49.9997C13.9307 59.6046 21.717 67.391 31.322 67.391C36.0543 67.391 40.3425 65.4982 43.4782 62.4315C41.4792 63.5151 39.1899 64.1305 36.7566 64.1305Z" fill="white"/>
</svg>
