<svg width="100" height="100" viewBox="0 0 100 100" fill="none" xmlns="http://www.w3.org/2000/svg">
<g clip-path="url(#clip0_2_93)">
<path d="M50 100C77.6144 100 100 77.6144 100 50C100 22.3858 77.6144 0 50 0C22.3858 0 0 22.3858 0 50C0 77.6144 22.3858 100 50 100Z" fill="white"/>
<path d="M50 36.9564H98.2774C97.0238 32.3051 95.1185 27.922 92.6613 23.9128H50V36.9564Z" fill="#338AF3"/>
<path d="M18.8755 89.1305H81.1241C85.6872 85.4961 89.6005 81.0815 92.661 76.0869H7.33862C10.3994 81.0815 14.3126 85.4961 18.8755 89.1305Z" fill="#338AF3"/>
<path d="M17.3912 12.0975C13.4603 15.4824 10.0621 19.4686 7.33862 23.9131H17.3912V12.0975Z" fill="#338AF3"/>
<path d="M50 50C50 44.9072 50 40.6449 50 36.9564H30.4349V50H17.3912V36.9564H1.72246C0.601562 41.1154 0 45.4869 0 50C0 54.5131 0.601562 58.8846 1.72246 63.0436H98.2777C99.3985 58.8846 100 54.5131 100 50H50Z" fill="#338AF3"/>
<path d="M50.0002 0C43.0569 0 36.4446 1.4166 30.4348 3.97423V23.9131H50.0002C50.0002 19.36 50.0002 15.4875 50.0002 10.8695H81.1246C72.5833 4.06718 61.7674 0 50.0002 0Z" fill="#338AF3"/>
</g>
<defs>
<clipPath id="clip0_2_93">
<rect width="100" height="100" fill="white"/>
</clipPath>
</defs>
</svg>
