<svg width="100" height="100" viewBox="0 0 100 100" fill="none" xmlns="http://www.w3.org/2000/svg">
<g clip-path="url(#clip0_2_88)">
<path d="M50 100C77.6143 100 100 77.6144 100 50C100 22.3858 77.6143 0 50 0C22.3858 0 0 22.3858 0 50C0 77.6144 22.3858 100 50 100Z" fill="white"/>
<path d="M45.6521 50C45.6521 50 14.6737 85.3623 14.6444 85.3554C23.6924 94.4036 36.1926 100 49.9999 100C77.614 100 99.9999 77.6141 99.9999 50H45.6521Z" fill="#D80027"/>
<path d="M14.6446 14.6445C-4.88154 34.1708 -4.88154 65.829 14.6446 85.3554C22.7136 77.2864 30.4741 69.5261 50 50L14.6446 14.6445Z" fill="#0052B4"/>
</g>
<defs>
<clipPath id="clip0_2_88">
<rect width="100" height="100" fill="white"/>
</clipPath>
</defs>
</svg>
