<svg width="24" height="32" viewBox="0 0 24 32" fill="none" xmlns="http://www.w3.org/2000/svg">
<path d="M1.02874 30.9913H15.6501L22.9295 23.6276L23.013 1.02956H1.03916V30.9913H1.02874ZM15.8486 31.9947H0.522193C0.383699 31.9947 0.250885 31.9396 0.152954 31.8416C0.0550242 31.7436 0 31.6107 0 31.4721V0.522618C0 0.384011 0.0550242 0.251081 0.152954 0.153071C0.250885 0.055061 0.383699 0 0.522193 0H23.4987C23.6314 0.00186884 23.7583 0.054187 23.8538 0.146333C23.9471 0.243214 23.9995 0.372382 24 0.506941L23.9112 23.8157C23.9093 23.9485 23.8571 24.0755 23.765 24.1711L16.2036 31.8536C16.1081 31.9457 15.9812 31.9981 15.8486 31.9999V31.9947Z" fill="#41A1FF"/>
<path d="M19.6449 24.3383C17.2428 24.3383 16.3498 25.2477 16.3498 27.6831V30.2857L22.2141 24.354L19.6449 24.3383ZM15.8486 31.9947C15.7823 31.9957 15.7166 31.9832 15.6553 31.9581C15.5643 31.9184 15.4865 31.8536 15.431 31.7712C15.3755 31.6888 15.3447 31.5923 15.342 31.493V27.6727C15.342 24.6676 16.6684 23.3245 19.6449 23.3245H23.4204C23.5157 23.3326 23.6069 23.3669 23.6841 23.4234C23.7613 23.4799 23.8215 23.5566 23.8581 23.645C23.8948 23.7334 23.9065 23.8303 23.8919 23.9249C23.8773 24.0195 23.837 24.1083 23.7754 24.1816L16.2036 31.8536C16.1081 31.9457 15.9812 31.9981 15.8486 31.9999V31.9947Z" fill="#41A1FF"/>
<path fill-rule="evenodd" clip-rule="evenodd" d="M0.574463 0.522705H23.457V8.25746H0.574463V0.522705Z" fill="#41A1FF"/>
<path d="M18.0521 3.93541L18.8145 2.48775H19.7701L18.5586 4.52074L19.838 6.61121H18.8511L18.073 5.1322L17.2793 6.61121H16.3341L17.5664 4.52074L16.3654 2.48775H17.3106L18.0521 3.93541ZM16.167 3.12012H15.0182V6.59031H14.2088V3.10967H13.0651V2.47729H16.167V3.10967V3.12012ZM10.4594 4.46325H11.2584C11.3538 4.47081 11.4497 4.45794 11.5397 4.4255C11.6298 4.39306 11.7119 4.34179 11.7806 4.2751C11.8411 4.21223 11.8882 4.13757 11.9187 4.05576C11.9492 3.97396 11.9626 3.88674 11.9581 3.79953C11.9644 3.61898 11.9008 3.44297 11.7806 3.30826C11.7131 3.23982 11.6312 3.18739 11.5408 3.15483C11.4504 3.12227 11.3539 3.11041 11.2584 3.12012H10.4594V4.46325V4.46325ZM10.4594 5.10084V6.59031H9.63436V2.48775H11.2531C11.6519 2.46422 12.045 2.59101 12.355 2.84313C12.486 2.96259 12.5898 3.10893 12.6592 3.27218C12.7286 3.43543 12.762 3.61173 12.7571 3.78907C12.7638 3.96742 12.7312 4.14506 12.6618 4.30943C12.5923 4.47379 12.4875 4.62087 12.355 4.74023C12.0473 4.99702 11.653 5.12607 11.2531 5.10084H10.4594ZM6.73093 4.46325H7.54559C7.64098 4.47081 7.73691 4.45794 7.82695 4.4255C7.91699 4.39306 7.99908 4.34179 8.06778 4.2751C8.12834 4.21223 8.17537 4.13757 8.20591 4.05576C8.23645 3.97396 8.24983 3.88674 8.24531 3.79953C8.25165 3.61898 8.18806 3.44297 8.06778 3.30826C7.99969 3.24072 7.91766 3.18889 7.82746 3.15639C7.73726 3.12389 7.64107 3.11151 7.54559 3.12012H6.73616V4.46325H6.73093ZM6.73093 5.10084V6.59031H5.92157V2.48775H7.54036C7.93891 2.46574 8.33146 2.59236 8.64218 2.84313C8.77323 2.96259 8.87704 3.10893 8.94643 3.27218C9.01582 3.43543 9.04917 3.61173 9.04428 3.78907C9.051 3.96742 9.01846 4.14506 8.94898 4.30943C8.87949 4.47379 8.77475 4.62087 8.64218 4.74023C8.33449 4.99702 7.94019 5.12607 7.54036 5.10084H6.73093ZM5.05994 6.59031H4.19312V5.8116H5.05994V6.59031Z" fill="white"/>
<path d="M8.12542 24.0562C8.03892 24.0566 7.95401 24.033 7.88001 23.9882C7.76739 23.9196 7.6849 23.8109 7.64906 23.6839C7.61322 23.5569 7.62669 23.421 7.6868 23.3036L9.43613 20.1992C9.51655 20.1186 9.62109 20.0665 9.73382 20.0509C9.84655 20.0352 9.96131 20.0568 10.0606 20.1124C10.16 20.1681 10.2384 20.2546 10.2841 20.359C10.3297 20.4633 10.34 20.5797 10.3134 20.6905L8.56405 23.8262C8.51874 23.9027 8.45473 23.9664 8.37798 24.0112C8.30122 24.056 8.21427 24.0805 8.12542 24.0823V24.0562ZM15.9061 24.0562C15.8173 24.0544 15.7303 24.0299 15.6536 23.9851C15.5768 23.9403 15.5128 23.8766 15.4675 23.8001L13.7181 20.6644C13.6915 20.5536 13.7018 20.4372 13.7475 20.3328C13.7931 20.2285 13.8716 20.1419 13.9709 20.0863C14.0702 20.0307 14.185 20.0091 14.2977 20.0247C14.4104 20.0404 14.515 20.0925 14.5954 20.1731L16.3447 23.2775C16.4048 23.3949 16.4183 23.5308 16.3825 23.6578C16.3466 23.7848 16.2641 23.8935 16.1515 23.9621C16.0775 24.0069 15.9926 24.0304 15.9061 24.03V24.0562Z" fill="#41A1FF"/>
<path d="M12.021 12.0778C11.8825 12.0778 11.7497 12.0227 11.6518 11.9247C11.5538 11.8267 11.4988 11.6938 11.4988 11.5552V10.4786C11.5304 10.37 11.5964 10.2747 11.6868 10.2068C11.7772 10.139 11.8871 10.1023 12.0001 10.1023C12.1131 10.1023 12.223 10.139 12.3134 10.2068C12.4038 10.2747 12.4698 10.37 12.5014 10.4786V11.5552C12.5014 11.6938 12.4464 11.8267 12.3485 11.9247C12.2506 12.0227 12.1177 12.0778 11.9792 12.0778H12.021Z" fill="#41A1FF"/>
<path d="M4.41255 19.9379H19.6397V12.0987H4.41255V19.9379ZM20.141 20.9466H3.89036C3.75186 20.9466 3.61905 20.8915 3.52112 20.7935C3.42319 20.6955 3.36816 20.5626 3.36816 20.424V11.5395C3.36816 11.4009 3.42319 11.2679 3.52112 11.1699C3.61905 11.0719 3.75186 11.0168 3.89036 11.0168H20.1201C20.2586 11.0168 20.3914 11.0719 20.4894 11.1699C20.5873 11.2679 20.6423 11.4009 20.6423 11.5395V20.424C20.6423 20.5626 20.5873 20.6955 20.4894 20.7935C20.3914 20.8915 20.2586 20.9466 20.1201 20.9466H20.141Z" fill="#41A1FF"/>
<path d="M17.9897 18.6994C17.8512 18.6994 17.7184 18.6443 17.6205 18.5463C17.5225 18.4483 17.4675 18.3154 17.4675 18.1768V13.8861C17.4992 13.7775 17.5651 13.6821 17.6555 13.6143C17.7459 13.5464 17.8558 13.5098 17.9688 13.5098C18.0818 13.5098 18.1918 13.5464 18.2822 13.6143C18.3726 13.6821 18.4385 13.7775 18.4702 13.8861V18.1768C18.4702 18.3154 18.4151 18.4483 18.3172 18.5463C18.2192 18.6443 18.0865 18.6994 17.948 18.6994H17.9897Z" fill="#41A1FF"/>
<path d="M16.3918 18.6992C16.2533 18.6992 16.1205 18.6442 16.0226 18.5461C15.9247 18.4481 15.8696 18.3152 15.8696 18.1766V15.6471C15.8696 15.5085 15.9247 15.3756 16.0226 15.2776C16.1205 15.1796 16.2533 15.1245 16.3918 15.1245C16.5303 15.1245 16.6632 15.1796 16.7611 15.2776C16.859 15.3756 16.914 15.5085 16.914 15.6471V18.1714C16.914 18.31 16.859 18.4429 16.7611 18.5409C16.6632 18.6389 16.5303 18.694 16.3918 18.694V18.6992Z" fill="#41A1FF"/>
<path d="M14.773 18.6994C14.6345 18.6994 14.5018 18.6443 14.4038 18.5463C14.3059 18.4483 14.2508 18.3154 14.2508 18.1768V16.9172C14.2281 16.8394 14.2239 16.7572 14.2384 16.6774C14.2529 16.5976 14.2858 16.5222 14.3344 16.4573C14.3831 16.3924 14.4461 16.3398 14.5186 16.3035C14.5911 16.2672 14.6711 16.2483 14.7522 16.2483C14.8333 16.2483 14.9132 16.2672 14.9857 16.3035C15.0582 16.3398 15.1213 16.3924 15.1699 16.4573C15.2186 16.5222 15.2514 16.5976 15.2659 16.6774C15.2804 16.7572 15.2762 16.8394 15.2535 16.9172V18.1768C15.2535 18.3154 15.1985 18.4483 15.1006 18.5463C15.0026 18.6443 14.8698 18.6994 14.7313 18.6994H14.773Z" fill="#41A1FF"/>
<path d="M10.9401 14.4026H5.97924C5.87077 14.371 5.77548 14.305 5.70768 14.2147C5.63989 14.1243 5.60327 14.0143 5.60327 13.9013C5.60327 13.7884 5.63989 13.6784 5.70768 13.588C5.77548 13.4976 5.87077 13.4317 5.97924 13.4H10.9192C10.997 13.3773 11.0791 13.3731 11.1588 13.3876C11.2386 13.4021 11.3138 13.4349 11.3787 13.4836C11.4435 13.5322 11.4962 13.5953 11.5324 13.6678C11.5687 13.7403 11.5876 13.8203 11.5876 13.9013C11.5876 13.9824 11.5687 14.0624 11.5324 14.1349C11.4962 14.2074 11.4435 14.2705 11.3787 14.3191C11.3138 14.3677 11.2386 14.4006 11.1588 14.4151C11.0791 14.4296 10.997 14.4253 10.9192 14.4026H10.9401Z" fill="#41A1FF"/>
<path d="M9.01324 16.5454H5.97926C5.86864 16.5153 5.77096 16.4497 5.70134 16.3586C5.63172 16.2676 5.59399 16.1561 5.59399 16.0415C5.59399 15.9268 5.63172 15.8154 5.70134 15.7243C5.77096 15.6333 5.86864 15.5676 5.97926 15.5376H8.99233C9.06977 15.5165 9.15102 15.5136 9.22978 15.5291C9.30853 15.5445 9.38269 15.5779 9.44644 15.6266C9.5102 15.6754 9.56183 15.7382 9.59739 15.8101C9.63295 15.882 9.65144 15.9612 9.65144 16.0415C9.65144 16.1217 9.63295 16.2009 9.59739 16.2729C9.56183 16.3448 9.5102 16.4076 9.44644 16.4563C9.38269 16.5051 9.30853 16.5385 9.22978 16.5539C9.15102 16.5694 9.06977 16.5664 8.99233 16.5454H9.01324Z" fill="#41A1FF"/>
<path d="M5.97926 18.6985C5.86864 18.6684 5.77096 18.6028 5.70134 18.5117C5.63172 18.4207 5.59399 18.3092 5.59399 18.1946C5.59399 18.08 5.63172 17.9685 5.70134 17.8774C5.77096 17.7864 5.86864 17.7207 5.97926 17.6907H12.0785C12.1891 17.7207 12.2867 17.7864 12.3564 17.8774C12.426 17.9685 12.4637 18.08 12.4637 18.1946C12.4637 18.3092 12.426 18.4207 12.3564 18.5117C12.2867 18.6028 12.1891 18.6684 12.0785 18.6985H5.97926Z" fill="#41A1FF"/>
</svg>
