<svg width="24" height="32" viewBox="0 0 24 32" fill="none" xmlns="http://www.w3.org/2000/svg">
<path d="M1.02354 30.9913H15.6449L22.9295 23.6276L23.013 1.02956H1.03393V30.9913H1.02354ZM15.8486 31.9947H0.522192C0.383698 31.9947 0.250916 31.9396 0.152986 31.8416C0.055056 31.7436 0 31.6107 0 31.4721V0.522618C0 0.384011 0.055056 0.251081 0.152986 0.153071C0.250916 0.055061 0.383698 0 0.522192 0H23.4987C23.6313 0.00186884 23.7583 0.054187 23.8538 0.146333C23.9471 0.243214 23.9995 0.372382 24 0.506941L23.9112 23.821C23.908 23.9519 23.8558 24.0768 23.765 24.1711L16.2036 31.8536C16.1081 31.9457 15.9812 31.9981 15.8486 31.9999V31.9947Z" fill="#41A1FF"/>
<path d="M19.6397 24.3383C17.2428 24.3383 16.3499 25.2477 16.3499 27.6831V30.2857L22.2141 24.3383H19.6397ZM15.8434 31.9947C15.7789 31.9953 15.7149 31.9828 15.6553 31.9581C15.5643 31.9184 15.4866 31.8536 15.4311 31.7712C15.3756 31.6888 15.3447 31.5923 15.342 31.493V27.6727C15.342 24.6676 16.6684 23.3245 19.6397 23.3245H23.4204C23.5157 23.3326 23.6069 23.3669 23.6841 23.4234C23.7613 23.4799 23.8216 23.5566 23.8582 23.645C23.8948 23.7334 23.9065 23.8303 23.8919 23.9249C23.8773 24.0195 23.837 24.1083 23.7755 24.1816L16.2037 31.8536C16.1069 31.947 15.9778 31.9994 15.8434 31.9999V31.9947Z" fill="#41A1FF"/>
<path fill-rule="evenodd" clip-rule="evenodd" d="M0.569336 0.522705H23.457V8.26791H0.569336V0.522705Z" fill="#41A1FF"/>
<path d="M17.8746 3.94064L18.637 2.48776H19.6031L18.3916 4.52075L19.671 6.61122H18.684L17.8955 5.13221L17.1174 6.61122H16.1671L17.3994 4.52075L16.1984 2.48776H17.1331L17.885 3.94064H17.8746ZM15.0182 5.50849C15.0203 5.43725 15.0064 5.36645 14.9775 5.30132C14.9486 5.23618 14.9054 5.17839 14.8511 5.13221C14.6778 5.00194 14.4783 4.91099 14.2663 4.86568C13.8742 4.75389 13.5036 4.57725 13.1697 4.34306C13.0506 4.24734 12.9551 4.12538 12.8908 3.98668C12.8264 3.84799 12.795 3.6963 12.7989 3.54345C12.7985 3.38018 12.8378 3.21926 12.9133 3.07452C12.9888 2.92978 13.0983 2.80555 13.2324 2.71249C13.55 2.49512 13.9287 2.38523 14.3133 2.39892C14.7083 2.37951 15.0966 2.50598 15.4046 2.7543C15.5352 2.86162 15.6395 2.99756 15.7092 3.15161C15.7789 3.30567 15.8123 3.47372 15.8067 3.64275V3.64275H15.0182C15.021 3.55872 15.0056 3.47508 14.9732 3.39752C14.9408 3.31996 14.892 3.25031 14.8302 3.1933C14.6805 3.08115 14.4999 3.01796 14.313 3.01235C14.1261 3.00674 13.942 3.05898 13.7858 3.16194C13.7278 3.20603 13.6806 3.2629 13.648 3.32815C13.6154 3.3934 13.5983 3.46528 13.5979 3.53823C13.6005 3.60611 13.62 3.67226 13.6547 3.73068C13.6893 3.78909 13.738 3.83792 13.7963 3.8727C14.0022 3.99899 14.2257 4.09409 14.4595 4.15491C14.8312 4.23927 15.178 4.40927 15.4725 4.6514C15.5868 4.75435 15.6769 4.88127 15.7365 5.02311C15.7961 5.16494 15.8236 5.31819 15.8172 5.47191C15.8222 5.63299 15.7871 5.79279 15.7151 5.93693C15.6431 6.08106 15.5364 6.20502 15.4046 6.29765C15.0889 6.51845 14.7083 6.62701 14.3237 6.606C13.9097 6.61123 13.5037 6.49098 13.1592 6.26107C13.0047 6.15334 12.8801 6.00813 12.797 5.83902C12.7139 5.66992 12.675 5.48246 12.684 5.29422V5.29422H13.4725C13.4639 5.39311 13.48 5.49261 13.5191 5.58381C13.5583 5.675 13.6194 5.75506 13.6971 5.81684C13.8764 5.94417 14.0937 6.00683 14.3133 5.99453C14.4983 6.00839 14.6825 5.95861 14.8355 5.85342C14.8915 5.80934 14.9367 5.75295 14.9675 5.68861C14.9983 5.62426 15.0138 5.5537 15.013 5.48236L15.0182 5.50849ZM10.5483 5.95272H12.3498V6.57986H9.73886V2.4773H10.5587V5.95272H10.5483ZM7.52999 3.93019L8.29237 2.4773H9.23757L8.03651 4.51029L9.30546 6.60076H8.32374L7.54045 5.12176L6.75716 6.60076H5.80151L7.04433 4.51029L5.83287 2.4773H6.778L7.52999 3.93019V3.93019ZM5.23756 6.57986H4.36548V5.81161H5.23756V6.57986Z" fill="white"/>
<path d="M3.13833 14.1265H20.8929V12.036H3.13833V14.1265ZM21.3002 14.9626H2.72061C2.66532 14.9633 2.61044 14.953 2.55915 14.9323C2.50786 14.9116 2.46113 14.8809 2.42178 14.8421C2.38243 14.8032 2.35125 14.7568 2.32993 14.7058C2.30861 14.6547 2.2976 14.5999 2.29761 14.5446V11.6022C2.2976 11.5469 2.30861 11.4921 2.32993 11.441C2.35125 11.3899 2.38243 11.3436 2.42178 11.3047C2.46113 11.2658 2.50786 11.2351 2.55915 11.2144C2.61044 11.1937 2.66532 11.1834 2.72061 11.1841H21.3002C21.3555 11.1834 21.4104 11.1937 21.4617 11.2144C21.5129 11.2351 21.5596 11.2658 21.599 11.3047C21.6383 11.3436 21.6696 11.3899 21.6909 11.441C21.7122 11.4921 21.7232 11.5469 21.7232 11.6022V14.5446C21.7232 14.5999 21.7122 14.6547 21.6909 14.7058C21.6696 14.7568 21.6383 14.8032 21.599 14.8421C21.5596 14.8809 21.5129 14.9116 21.4617 14.9323C21.4104 14.953 21.3555 14.9633 21.3002 14.9626V14.9626Z" fill="#41A1FF"/>
<path d="M3.13833 17.0532H20.8929V14.9627H3.13833V17.0532ZM21.3002 17.8946H2.72061C2.66532 17.8953 2.61044 17.885 2.55915 17.8643C2.50786 17.8436 2.46113 17.8129 2.42178 17.774C2.38243 17.7351 2.35125 17.6888 2.32993 17.6377C2.30861 17.5866 2.2976 17.5318 2.29761 17.4765V14.5446C2.2976 14.4892 2.30861 14.4345 2.32993 14.3834C2.35125 14.3323 2.38243 14.286 2.42178 14.2471C2.46113 14.2082 2.50786 14.1775 2.55915 14.1568C2.61044 14.1361 2.66532 14.1258 2.72061 14.1265H21.3002C21.3555 14.1258 21.4104 14.1361 21.4617 14.1568C21.5129 14.1775 21.5596 14.2082 21.599 14.2471C21.6383 14.286 21.6696 14.3323 21.6909 14.3834C21.7122 14.4345 21.7232 14.4892 21.7232 14.5446V17.4765C21.7232 17.5318 21.7122 17.5866 21.6909 17.6377C21.6696 17.6888 21.6383 17.7351 21.599 17.774C21.5596 17.8129 21.5129 17.8436 21.4617 17.8643C21.4104 17.885 21.3555 17.8953 21.3002 17.8946Z" fill="#41A1FF"/>
<path d="M3.13833 19.9956H20.8929V17.9051H3.13833V19.9956ZM21.3002 20.8318H2.72061C2.66532 20.8325 2.61044 20.8222 2.55915 20.8014C2.50786 20.7807 2.46113 20.7501 2.42178 20.7112C2.38243 20.6723 2.35125 20.6259 2.32993 20.5749C2.30861 20.5238 2.2976 20.469 2.29761 20.4137V17.4766C2.29761 17.3643 2.3422 17.2566 2.42153 17.1772C2.50085 17.0978 2.60843 17.0532 2.72061 17.0532H21.3002C21.4124 17.0532 21.52 17.0978 21.5993 17.1772C21.6786 17.2566 21.7232 17.3643 21.7232 17.4766V20.4137C21.7232 20.469 21.7122 20.5238 21.6909 20.5749C21.6696 20.6259 21.6383 20.6723 21.599 20.7112C21.5596 20.7501 21.5129 20.7807 21.4617 20.8014C21.4104 20.8222 21.3555 20.8325 21.3002 20.8318Z" fill="#41A1FF"/>
<path d="M8.85631 19.9954H15.1644V12.0255H8.85631V19.9954ZM15.5821 20.8316H8.43853C8.32774 20.8316 8.22148 20.7876 8.14314 20.7092C8.0648 20.6308 8.02075 20.5244 8.02075 20.4135V11.6022C8.02075 11.4913 8.0648 11.3849 8.14314 11.3065C8.22148 11.2281 8.32774 11.1841 8.43853 11.1841H15.5821C15.6929 11.1841 15.7992 11.2281 15.8775 11.3065C15.9559 11.3849 15.9999 11.4913 15.9999 11.6022V20.4135C15.9999 20.4684 15.9891 20.5228 15.9681 20.5735C15.9471 20.6243 15.9163 20.6703 15.8775 20.7092C15.8387 20.748 15.7927 20.7788 15.742 20.7998C15.6913 20.8208 15.637 20.8316 15.5821 20.8316V20.8316Z" fill="#41A1FF"/>
</svg>
