<svg width="24" height="32" viewBox="0 0 24 32" fill="none" xmlns="http://www.w3.org/2000/svg">
<path d="M1.02326 30.9913H15.6415L22.9193 23.6276L23.008 1.02956H1.03371V30.9913H1.02326ZM15.8399 31.9947H0.52208C0.383616 31.9947 0.250798 31.9396 0.152889 31.8416C0.0549804 31.7436 0 31.6107 0 31.4721V0.522618C0 0.384011 0.0549804 0.251081 0.152889 0.153071C0.250798 0.055061 0.383616 0 0.52208 0H23.4936C23.628 0.000535855 23.7571 0.0529507 23.8539 0.146333C23.9472 0.243214 23.9995 0.372382 24 0.506941L23.9113 23.8157C23.9094 23.9485 23.8571 24.0755 23.7651 24.1711L16.2002 31.8536C16.1034 31.947 15.9743 31.9994 15.8399 31.9999V31.9947Z" fill="#41A1FF"/>
<path d="M19.6458 24.3383C17.2443 24.3383 16.3567 25.2477 16.3567 27.6831V30.2857L22.2197 24.354L19.6458 24.3383ZM15.8503 31.9947C15.7858 31.9953 15.7219 31.9828 15.6624 31.9581C15.5714 31.9184 15.4936 31.8536 15.4381 31.7712C15.3826 31.6888 15.3518 31.5923 15.3491 31.493V27.6727C15.3491 24.6676 16.6752 23.3245 19.6458 23.3245H23.4257C23.5234 23.3276 23.6183 23.3582 23.6995 23.4127C23.7808 23.4672 23.8451 23.5435 23.8851 23.6328C23.9214 23.7248 23.9308 23.8252 23.9123 23.9223C23.8938 24.0195 23.8482 24.1094 23.7807 24.1816L16.2001 31.8536C16.1033 31.947 15.9743 31.9994 15.8398 31.9999L15.8503 31.9947Z" fill="#41A1FF"/>
<path fill-rule="evenodd" clip-rule="evenodd" d="M0.569092 0.522461H23.4518V8.26767H0.569092V0.522461Z" fill="#41A1FF"/>
<path d="M18.3513 3.93512L19.1083 2.48747H20.0585L18.8577 4.52045L20.1264 6.61093H19.124L18.3408 5.13191L17.563 6.61093H16.6076L17.8449 4.52045L16.6336 2.48747H17.5839L18.3356 3.93512H18.3513ZM16.3309 5.1894C16.3465 5.38219 16.3189 5.57605 16.2503 5.75686C16.1817 5.93767 16.0736 6.10089 15.9341 6.23464C15.7793 6.37345 15.5985 6.48006 15.4022 6.54825C15.2059 6.61644 14.998 6.64486 14.7907 6.63183C14.5702 6.63944 14.3505 6.60109 14.1456 6.51922C13.9407 6.43735 13.7551 6.31375 13.6004 6.15625C13.4452 5.99195 13.3245 5.79811 13.2456 5.58624C13.1667 5.37437 13.1311 5.14878 13.141 4.92287V4.15462C13.1235 3.7005 13.2847 3.25764 13.5899 2.92124C13.7379 2.7654 13.9174 2.64286 14.1163 2.56176C14.3152 2.48067 14.5291 2.44287 14.7437 2.45089C15.1731 2.42197 15.5967 2.56269 15.9236 2.84285C16.0648 2.97587 16.1746 3.13869 16.245 3.31949C16.3154 3.50029 16.3448 3.69453 16.3309 3.88809H15.5425C15.5551 3.66425 15.4865 3.4434 15.3493 3.26617C15.2685 3.19071 15.173 3.13273 15.0688 3.09586C14.9646 3.05899 14.8539 3.04403 14.7437 3.0519C14.6299 3.04786 14.517 3.07372 14.4163 3.1269C14.3155 3.18007 14.2304 3.25872 14.1694 3.35501C14.0183 3.5779 13.9432 3.84371 13.9554 4.11281V4.93332C13.9416 5.20742 14.0207 5.47813 14.1799 5.70157C14.2494 5.79769 14.3414 5.87516 14.448 5.92713C14.5546 5.97909 14.6722 6.00394 14.7907 5.99946C14.894 6.00682 14.9978 5.993 15.0957 5.95886C15.1935 5.92471 15.2834 5.87095 15.3598 5.80087C15.4867 5.61943 15.5475 5.3999 15.5321 5.17896L16.3309 5.1894ZM11.8096 4.14417C11.8222 3.86294 11.7414 3.58547 11.5799 3.35501C11.5011 3.25876 11.4019 3.18121 11.2895 3.12796C11.1771 3.07472 11.0543 3.04709 10.93 3.04709C10.8056 3.04709 10.6828 3.07472 10.5704 3.12796C10.458 3.18121 10.3588 3.25876 10.28 3.35501C10.1239 3.59171 10.0454 3.8712 10.0554 4.15462V4.89674C10.0448 5.1786 10.1234 5.45664 10.28 5.69112C10.3535 5.79131 10.4506 5.87184 10.5625 5.92561C10.6745 5.97938 10.798 6.00475 10.9221 5.99946C11.0486 6.00598 11.1747 5.98126 11.2895 5.92749C11.4042 5.87372 11.5039 5.79255 11.5799 5.69112C11.7408 5.45837 11.8214 5.17949 11.8096 4.89674V4.15462V4.14417ZM12.6293 4.88628C12.6377 5.11572 12.6 5.34451 12.5184 5.55908C12.4368 5.77364 12.3129 5.9696 12.1542 6.13534C11.9952 6.30009 11.8033 6.42946 11.591 6.51501C11.3787 6.60055 11.1508 6.64036 10.9221 6.63183C10.6973 6.64066 10.4731 6.60087 10.265 6.5152C10.0569 6.42952 9.86967 6.29996 9.71608 6.13534C9.55927 5.9685 9.43703 5.77223 9.35638 5.55785C9.27574 5.34347 9.23827 5.11522 9.24619 4.88628V4.15462C9.23728 3.92723 9.27328 3.70032 9.35211 3.48688C9.43095 3.27344 9.55108 3.07767 9.70563 2.91079C9.8631 2.74871 10.0527 2.62131 10.2621 2.53672C10.4716 2.45213 10.6964 2.41221 10.9221 2.41952C11.1503 2.4113 11.3777 2.45073 11.5898 2.53531C11.8019 2.61989 11.9942 2.74776 12.1542 2.91079C12.312 3.07608 12.4353 3.27122 12.5169 3.48479C12.5985 3.69837 12.6367 3.92609 12.6293 4.15462V4.89674V4.88628ZM6.4374 3.10938V5.9472H6.95948C7.08938 5.95504 7.2193 5.93162 7.33829 5.87888C7.45729 5.82614 7.56192 5.74563 7.64344 5.64409C7.8201 5.42409 7.91099 5.1474 7.89925 4.86538V4.18598C7.90958 3.90416 7.81884 3.62795 7.64344 3.40728C7.56003 3.30829 7.45488 3.2299 7.33626 3.17824C7.21763 3.12657 7.08869 3.103 6.95948 3.10938H6.4374ZM5.61254 6.57957V2.47701H7.01174C7.23862 2.47055 7.4644 2.51043 7.67536 2.59422C7.88633 2.67801 8.07801 2.80396 8.23874 2.96437C8.39948 3.12478 8.52588 3.31629 8.61023 3.52722C8.69457 3.73815 8.73511 3.96408 8.72934 4.19121V4.87584C8.7375 5.10311 8.69858 5.32961 8.61494 5.54106C8.5313 5.75251 8.40477 5.94432 8.24339 6.10439C8.08202 6.26446 7.88926 6.38932 7.67728 6.47111C7.46529 6.55289 7.2387 6.58982 7.01174 6.57957H5.61254ZM4.76677 6.57957H3.88965V5.81132H4.76677V6.57957Z" fill="white"/>
<path d="M19.6458 13.6142H4.34888C4.27107 13.6369 4.18906 13.6412 4.10932 13.6267C4.02957 13.6121 3.95429 13.5792 3.88945 13.5306C3.8246 13.4819 3.77197 13.4188 3.73573 13.3462C3.69948 13.2736 3.68066 13.1936 3.68066 13.1125C3.68066 13.0313 3.69948 12.9513 3.73573 12.8787C3.77197 12.8062 3.8246 12.743 3.88945 12.6944C3.95429 12.6457 4.02957 12.6128 4.10932 12.5983C4.18906 12.5838 4.27107 12.588 4.34888 12.6107H19.6458C19.7237 12.588 19.8057 12.5838 19.8854 12.5983C19.9652 12.6128 20.0404 12.6457 20.1053 12.6944C20.1701 12.743 20.2227 12.8062 20.259 12.8787C20.2952 12.9513 20.3141 13.0313 20.3141 13.1125C20.3141 13.1936 20.2952 13.2736 20.259 13.3462C20.2227 13.4188 20.1701 13.4819 20.1053 13.5306C20.0404 13.5792 19.9652 13.6121 19.8854 13.6267C19.8057 13.6412 19.7237 13.6369 19.6458 13.6142Z" fill="#41A1FF"/>
<path d="M19.6458 17.1576H4.34888C4.27107 17.1804 4.18906 17.1846 4.10932 17.1701C4.02957 17.1556 3.95429 17.1227 3.88945 17.074C3.8246 17.0253 3.77197 16.9622 3.73573 16.8896C3.69948 16.8171 3.68066 16.7371 3.68066 16.6559C3.68066 16.5748 3.69948 16.4948 3.73573 16.4222C3.77197 16.3496 3.8246 16.2865 3.88945 16.2378C3.95429 16.1891 4.02957 16.1562 4.10932 16.1417C4.18906 16.1272 4.27107 16.1315 4.34888 16.1542H19.6458C19.7237 16.1315 19.8057 16.1272 19.8854 16.1417C19.9652 16.1562 20.0404 16.1891 20.1053 16.2378C20.1701 16.2865 20.2227 16.3496 20.259 16.4222C20.2952 16.4948 20.3141 16.5748 20.3141 16.6559C20.3141 16.7371 20.2952 16.8171 20.259 16.8896C20.2227 16.9622 20.1701 17.0253 20.1053 17.074C20.0404 17.1227 19.9652 17.1556 19.8854 17.1701C19.8057 17.1846 19.7237 17.1804 19.6458 17.1576V17.1576Z" fill="#41A1FF"/>
<path d="M19.6459 20.7115H4.34891C4.27149 20.7326 4.19026 20.7355 4.11152 20.72C4.03278 20.7046 3.95871 20.6712 3.89496 20.6224C3.83122 20.5736 3.77954 20.5108 3.74398 20.4387C3.70843 20.3667 3.68994 20.2875 3.68994 20.2072C3.68994 20.1269 3.70843 20.0476 3.74398 19.9756C3.77954 19.9036 3.83122 19.8408 3.89496 19.792C3.95871 19.7432 4.03278 19.7098 4.11152 19.6943C4.19026 19.6789 4.27149 19.6818 4.34891 19.7029H19.6459C19.7565 19.7329 19.8541 19.7986 19.9237 19.8898C19.9934 19.9809 20.0311 20.0925 20.0311 20.2072C20.0311 20.3219 19.9934 20.4335 19.9237 20.5246C19.8541 20.6157 19.7565 20.6814 19.6459 20.7115V20.7115Z" fill="#41A1FF"/>
<path d="M12.0078 24.2599H4.34888C4.27107 24.2826 4.18906 24.2869 4.10932 24.2724C4.02957 24.2579 3.95429 24.225 3.88945 24.1763C3.8246 24.1276 3.77197 24.0645 3.73573 23.9919C3.69948 23.9194 3.68066 23.8393 3.68066 23.7582C3.68066 23.6771 3.69948 23.5971 3.73573 23.5245C3.77197 23.4519 3.8246 23.3888 3.88945 23.3401C3.95429 23.2914 4.02957 23.2585 4.10932 23.244C4.18906 23.2295 4.27107 23.2338 4.34888 23.2565H12.0078C12.0856 23.2338 12.1676 23.2295 12.2474 23.244C12.3271 23.2585 12.4024 23.2914 12.4672 23.3401C12.5321 23.3888 12.5847 23.4519 12.621 23.5245C12.6572 23.5971 12.6761 23.6771 12.6761 23.7582C12.6761 23.8393 12.6572 23.9194 12.621 23.9919C12.5847 24.0645 12.5321 24.1276 12.4672 24.1763C12.4024 24.225 12.3271 24.2579 12.2474 24.2724C12.1676 24.2869 12.0856 24.2826 12.0078 24.2599V24.2599Z" fill="#41A1FF"/>
</svg>
