<svg width="24" height="32" viewBox="0 0 24 32" fill="none" xmlns="http://www.w3.org/2000/svg">
<path d="M1.02259 30.9964H15.6313L22.9044 23.6315L22.993 1.0245H1.03303V30.9964H1.02259ZM15.8295 32H0.521739C0.383365 32 0.250635 31.9449 0.15279 31.8469C0.0549445 31.7489 0 31.6159 0 31.4773V0.522705C0 0.384075 0.0549445 0.251131 0.15279 0.153104C0.250635 0.0550781 0.383365 0 0.521739 0H23.4783C23.6166 0 23.7494 0.0550781 23.8472 0.153104C23.9451 0.251131 24 0.384075 24 0.522705L23.9113 23.8406C23.9094 23.9734 23.8572 24.1004 23.7652 24.196L16.2 31.8536C16.1033 31.947 15.9743 31.9995 15.84 32H15.8295Z" fill="#41A1FF"/>
<path d="M19.633 24.3423C17.233 24.3423 16.346 25.2518 16.346 27.6876V30.3011L22.2052 24.3684L19.633 24.3423ZM15.84 31.9999C15.7755 32.0005 15.7117 31.988 15.6521 31.9633C15.5612 31.9236 15.4835 31.8588 15.428 31.7764C15.3726 31.694 15.3418 31.5975 15.3391 31.4981V27.6876C15.3391 24.6768 16.6643 23.3335 19.633 23.3335H23.4104C23.5066 23.341 23.5988 23.375 23.6769 23.4319C23.7549 23.4887 23.8156 23.5661 23.8524 23.6555C23.8892 23.7448 23.9005 23.8426 23.8851 23.9381C23.8697 24.0335 23.8282 24.1228 23.7652 24.196L16.2 31.8536C16.1033 31.947 15.9743 31.9994 15.84 31.9999V31.9999Z" fill="#41A1FF"/>
<path fill-rule="evenodd" clip-rule="evenodd" d="M0.568848 0.522705H23.4367V8.2692H0.568848V0.522705Z" fill="#41A1FF"/>
<path d="M16.3409 4.92389H17.2748V3.43418L17.207 3.5544L16.3618 4.92389H16.3409ZM18.0835 4.92389H18.5427V5.55636H18.0679V6.44496H17.2592V5.55636H15.6001L15.5635 5.05978L17.2488 2.33649H18.0679V4.95002L18.0835 4.92389ZM12.8974 4.32278H13.6957C13.791 4.33001 13.8867 4.31697 13.9766 4.28454C14.0665 4.25212 14.1486 4.20102 14.2174 4.1346C14.3318 3.99954 14.3946 3.8282 14.3946 3.6511C14.3946 3.474 14.3318 3.30265 14.2174 3.16759C14.1508 3.09757 14.0693 3.04339 13.9791 3.00902C13.8888 2.97464 13.792 2.96095 13.6957 2.96896H12.8974V4.32278V4.32278ZM12.8974 4.95525V6.44496H12.0783V2.33649H13.6957C14.0959 2.31272 14.4899 2.44369 14.7966 2.70239C14.9239 2.82528 15.0252 2.97263 15.0944 3.13564C15.1636 3.29865 15.1993 3.47397 15.1993 3.6511C15.1993 3.82824 15.1636 4.00356 15.0944 4.16657C15.0252 4.32958 14.9239 4.47693 14.7966 4.59981C14.4869 4.85198 14.0941 4.97878 13.6957 4.95525H12.8974ZM8.16528 2.34172L9.20876 5.37341L10.2522 2.34172H11.2957V6.45018H10.487V5.22705L10.5653 3.40805L9.4853 6.45018H8.96356L7.8783 3.4185L7.95657 5.22705V6.45018H7.11136V2.34172H8.16528ZM6.27659 6.45018H5.46265V5.72884H6.27659V6.45018Z" fill="white"/>
<path d="M12.0001 10.2293C10.6818 10.2169 9.38955 10.5972 8.2874 11.3219C7.18525 12.0466 6.32294 13.083 5.80984 14.2997C5.29674 15.5163 5.15604 16.8582 5.4056 18.1551C5.65517 19.452 6.28372 20.6454 7.2115 21.5837C8.13928 22.522 9.32442 23.163 10.6165 23.4253C11.9086 23.6876 13.2493 23.5593 14.4685 23.0568C15.6876 22.5543 16.7303 21.7001 17.4641 20.6029C18.1978 19.5056 18.5896 18.2146 18.5896 16.8938C18.5966 15.135 17.9066 13.4454 16.6711 12.1958C15.4356 10.9463 13.7556 10.239 12.0001 10.2293V10.2293ZM12.0001 24.3946C10.5154 24.4071 9.06058 23.9773 7.82018 23.1599C6.57977 22.3425 5.60974 21.1743 5.03321 19.8036C4.45669 18.4328 4.29971 16.9214 4.58211 15.4611C4.86451 14.0009 5.5736 12.6576 6.61939 11.6017C7.66517 10.5459 9.00044 9.82521 10.4558 9.53105C11.9112 9.2369 13.421 9.38258 14.7936 9.94961C16.1662 10.5166 17.3396 11.4795 18.165 12.7158C18.9905 13.9522 19.4306 15.4064 19.4296 16.8938C19.431 18.8717 18.6499 20.7695 17.2573 22.1715C15.8648 23.5735 13.9743 24.3654 12.0001 24.3737V24.3946Z" fill="#41A1FF"/>
<path d="M10.1271 13.6426C10.116 13.6426 10.1053 13.647 10.0975 13.6548C10.0897 13.6627 10.0853 13.6733 10.0853 13.6844V20.1032C10.0822 20.1187 10.0822 20.1347 10.0853 20.1503C10.0853 20.1503 10.0853 20.1503 10.0853 20.1503L12.767 18.5822L12.8192 18.5456L15.5688 16.9356C15.5741 16.9318 15.5785 16.9267 15.5816 16.9207C15.5846 16.9148 15.5862 16.9083 15.5862 16.9016C15.5862 16.895 15.5846 16.8885 15.5816 16.8826C15.5785 16.8766 15.5741 16.8716 15.5688 16.8677L12.8505 15.2996L12.7879 15.2525L10.1009 13.6844H10.0697L10.1271 13.6426ZM10.1271 20.9605C9.97346 20.9604 9.82247 20.9204 9.68894 20.8443C9.55541 20.7683 9.44388 20.6588 9.36527 20.5266C9.29079 20.3904 9.25135 20.2377 9.2505 20.0823V13.6844C9.24911 13.4524 9.33942 13.2293 9.50169 13.0638C9.66397 12.8983 9.88505 12.8038 10.1166 12.801C10.2876 12.8007 10.4548 12.8517 10.5966 12.9474L13.3096 14.5155L13.3775 14.5626L16.054 16.1307C16.2523 16.2494 16.3961 16.4413 16.4547 16.6651C16.5132 16.8889 16.4817 17.1268 16.367 17.3277C16.2917 17.4608 16.1817 17.571 16.0488 17.6465L13.3618 19.2146L13.3096 19.2512L10.5601 20.8611C10.4285 20.9373 10.279 20.977 10.1271 20.9761V20.9605Z" fill="#41A1FF"/>
</svg>
