<svg width="24" height="32" viewBox="0 0 24 32" fill="none" xmlns="http://www.w3.org/2000/svg">
<path d="M1.02265 30.9558H15.6313L22.9096 23.5941L22.9931 1.01289H1.03303V30.9558H1.02265ZM15.8348 31.9635H0.521739C0.383365 31.9635 0.250698 31.9085 0.152853 31.8105C0.0550082 31.7126 0 31.5798 0 31.4414V0.522109C0 0.383637 0.0550082 0.250812 0.152853 0.152898C0.250698 0.0549834 0.383365 0 0.521739 0H23.4783C23.6166 0 23.7494 0.0549834 23.8472 0.152898C23.9451 0.250812 24 0.383637 24 0.522109L23.9113 23.8134C23.9082 23.9442 23.856 24.069 23.7652 24.1632L16.2 31.8225C16.1054 31.9165 15.9785 31.9707 15.8452 31.9739L15.8348 31.9635Z" fill="#41A1FF"/>
<path d="M19.6225 24.3146C17.2277 24.3146 16.3356 25.2178 16.3356 27.6561V30.2666L22.1947 24.3146H19.6225ZM15.8295 32C15.7648 31.9986 15.7009 31.9844 15.6416 31.9582C15.5507 31.9186 15.473 31.8538 15.4176 31.7715C15.3621 31.6892 15.3313 31.5928 15.3286 31.4936V27.6822C15.3286 24.6748 16.6538 23.333 19.6225 23.333H23.4C23.4985 23.3352 23.5944 23.3653 23.6766 23.4198C23.7588 23.4743 23.8239 23.551 23.8643 23.641C23.8946 23.7299 23.9005 23.8253 23.8812 23.9172C23.8619 24.009 23.8182 24.094 23.7547 24.1631L16.1895 31.8225C16.1431 31.871 16.0871 31.9096 16.0252 31.9356C15.9633 31.9616 15.8967 31.9747 15.8295 31.9739V32Z" fill="#41A1FF"/>
<path fill-rule="evenodd" clip-rule="evenodd" d="M0.568848 0.522217H23.4367V8.25464H0.568848V0.522217Z" fill="#41A1FF"/>
<path d="M18.9705 4.76164H17.1497V6.58379H16.2784V2.18765H19.2732V2.86638H17.1497V4.07768H18.9705V4.76164V4.76164ZM13.148 2.86638V5.89461H13.7271C13.865 5.9006 14.0025 5.87504 14.1291 5.81985C14.2557 5.76466 14.368 5.6813 14.4575 5.57613C14.6416 5.33788 14.7341 5.04146 14.7184 4.74073V4.0098C14.7359 3.71206 14.643 3.41832 14.4575 3.18486C14.3704 3.07622 14.2587 2.98977 14.1318 2.9326C14.0048 2.87543 13.8661 2.84916 13.7271 2.85593L13.148 2.86638ZM12.2714 6.58379V2.18765H13.7636C14.0076 2.17884 14.2508 2.22051 14.4779 2.31008C14.7051 2.39965 14.9113 2.53519 15.0837 2.70819C15.256 2.8812 15.3909 3.08795 15.4798 3.31552C15.5687 3.54308 15.6096 3.78654 15.6001 4.03067V4.75119C15.6105 4.99507 15.5701 5.23844 15.4814 5.46584C15.3927 5.69323 15.2577 5.89968 15.0849 6.07204C14.9122 6.2444 14.7055 6.3789 14.478 6.467C14.2506 6.55511 14.0073 6.59488 13.7636 6.58379H12.2714ZM9.14098 4.30741H10.0071C10.103 4.31197 10.1988 4.2967 10.2886 4.26257C10.3783 4.22844 10.4601 4.17616 10.5288 4.109C10.5935 4.03905 10.6435 3.95677 10.6758 3.86707C10.7081 3.77737 10.722 3.68208 10.7166 3.58689C10.7234 3.39517 10.6561 3.20821 10.5288 3.06479C10.462 2.99441 10.3808 2.9393 10.2908 2.90325C10.2007 2.86721 10.1039 2.85107 10.0071 2.85593H9.15142V4.32828L9.14098 4.30741ZM9.14098 4.98614V6.58379H8.27487V2.18765H10.0071C10.4368 2.16647 10.8589 2.30606 11.1914 2.57923C11.3266 2.71149 11.4341 2.86943 11.5074 3.04382C11.5807 3.21821 11.6185 3.4055 11.6185 3.5947C11.6185 3.78391 11.5807 3.97123 11.5074 4.14562C11.4341 4.32001 11.3266 4.47794 11.1914 4.61021C10.8546 4.87387 10.4342 5.00734 10.0071 4.98614H9.14098ZM7.38794 6.58379H6.54272V5.81628H7.41405V6.58379H7.38794Z" fill="white"/>
<path d="M16.7478 20.7172C16.6638 20.7993 16.5627 20.8619 16.4518 20.9007C16.3409 20.9395 16.2229 20.9535 16.106 20.9417C15.8243 20.9417 15.7252 20.7746 15.2974 20.4196C15.6143 20.3834 15.9331 20.366 16.2521 20.3674C16.4626 20.3429 16.6757 20.3773 16.8678 20.4666C16.8396 20.5488 16.7992 20.6262 16.7478 20.6963V20.7172ZM9.96522 20.9626C10.5089 19.6467 10.9775 18.301 11.3687 16.9319C11.9432 17.9808 12.6195 18.9706 13.3878 19.887C12.2248 20.1709 11.0816 20.5302 9.96522 20.9626V20.9626ZM11.0452 12.4156C11.0765 12.4156 11.6034 13.0109 11.1026 14.1334C10.8837 13.9042 10.7568 13.6023 10.7462 13.2855C10.7356 12.9686 10.8421 12.659 11.0452 12.4156V12.4156ZM6.71473 24.6487C6.46951 24.4503 6.47998 24.325 6.49042 24.2727C6.52172 23.9804 6.98084 23.4582 8.10779 22.816C7.25214 24.4137 6.79299 24.6173 6.71473 24.6487V24.6487ZM16.1426 19.4693C15.5465 19.482 14.9528 19.5484 14.3687 19.6677C13.291 18.4523 12.3884 17.0921 11.6869 15.6266C12.3913 12.6193 12.0365 12.1964 11.8852 11.998C11.7339 11.7996 11.4834 11.4341 11.2173 11.4341C11.0409 11.4465 10.8662 11.4762 10.6956 11.5229C10.5529 11.5803 10.4247 11.6685 10.32 11.7814C10.2154 11.8942 10.137 12.0288 10.0904 12.1755C9.71999 13.0631 10.2365 14.5615 10.753 15.7206C10.2523 17.6887 9.58375 19.6101 8.75475 21.4638C6.75649 22.3932 5.69214 23.2964 5.62431 24.1631C5.60329 24.3968 5.64664 24.6318 5.74965 24.8426C5.85267 25.0533 6.01141 25.2319 6.20866 25.3587C6.35686 25.4764 6.54122 25.5391 6.7304 25.5362C7.19996 25.5362 7.65907 25.1812 8.20689 24.4137C8.68787 23.6926 9.10845 22.933 9.4643 22.1425C10.9645 21.49 12.525 20.9864 14.1235 20.6389C14.953 21.4429 15.6887 21.8606 16.3461 21.8606C16.5798 21.8603 16.8097 21.8013 17.0147 21.6891C17.2198 21.5769 17.3935 21.4151 17.52 21.2184C17.658 21.0663 17.7503 20.8783 17.7863 20.676C17.8223 20.4738 17.8006 20.2654 17.7235 20.075C17.52 19.673 17.0191 19.4746 16.1895 19.4746L16.1426 19.4693Z" fill="#41A1FF"/>
</svg>
