<svg width="328" height="24" viewBox="0 0 328 24" fill="none" xmlns="http://www.w3.org/2000/svg">
<path d="M4.31 7.68V11.69H9.37V13.76H4.31V17.85H10.73V20H1.61V5.54H10.73V7.68H4.31ZM17.4839 12.42C17.9906 12.42 18.4306 12.3567 18.8039 12.23C19.1839 12.1033 19.4939 11.93 19.7339 11.71C19.9806 11.4833 20.1639 11.2167 20.2839 10.91C20.4039 10.6033 20.4639 10.2667 20.4639 9.9C20.4639 9.16667 20.2206 8.60333 19.7339 8.21C19.2539 7.81667 18.5172 7.62 17.5239 7.62H15.8039V12.42H17.4839ZM24.4039 20H21.9739C21.5139 20 21.1806 19.82 20.9739 19.46L17.9339 14.83C17.8206 14.6567 17.6939 14.5333 17.5539 14.46C17.4206 14.3867 17.2206 14.35 16.9539 14.35H15.8039V20H13.1139V5.54H17.5239C18.5039 5.54 19.3439 5.64333 20.0439 5.85C20.7506 6.05 21.3272 6.33333 21.7739 6.7C22.2272 7.06667 22.5606 7.50667 22.7739 8.02C22.9872 8.52667 23.0939 9.08667 23.0939 9.7C23.0939 10.1867 23.0206 10.6467 22.8739 11.08C22.7339 11.5133 22.5272 11.9067 22.2539 12.26C21.9872 12.6133 21.6539 12.9233 21.2539 13.19C20.8606 13.4567 20.4106 13.6667 19.9039 13.82C20.0772 13.92 20.2372 14.04 20.3839 14.18C20.5306 14.3133 20.6639 14.4733 20.7839 14.66L24.4039 20ZM33.6055 14.54L31.8455 9.73C31.7588 9.51667 31.6688 9.26333 31.5755 8.97C31.4821 8.67667 31.3888 8.36 31.2955 8.02C31.2088 8.36 31.1188 8.68 31.0255 8.98C30.9321 9.27333 30.8421 9.53 30.7555 9.75L29.0055 14.54H33.6055ZM38.3555 20H36.2755C36.0421 20 35.8521 19.9433 35.7055 19.83C35.5588 19.71 35.4488 19.5633 35.3755 19.39L34.2955 16.44H28.3055L27.2255 19.39C27.1721 19.5433 27.0688 19.6833 26.9155 19.81C26.7621 19.9367 26.5721 20 26.3455 20H24.2455L29.9355 5.54H32.6755L38.3555 20ZM47.5522 8.17C47.4722 8.31 47.3855 8.41333 47.2922 8.48C47.2055 8.54 47.0955 8.57 46.9622 8.57C46.8222 8.57 46.6689 8.52 46.5022 8.42C46.3422 8.31333 46.1489 8.19667 45.9222 8.07C45.6955 7.94333 45.4289 7.83 45.1222 7.73C44.8222 7.62333 44.4655 7.57 44.0522 7.57C43.6789 7.57 43.3522 7.61667 43.0722 7.71C42.7922 7.79667 42.5555 7.92 42.3622 8.08C42.1755 8.24 42.0355 8.43333 41.9422 8.66C41.8489 8.88 41.8022 9.12333 41.8022 9.39C41.8022 9.73 41.8955 10.0133 42.0822 10.24C42.2755 10.4667 42.5289 10.66 42.8422 10.82C43.1555 10.98 43.5122 11.1233 43.9122 11.25C44.3122 11.3767 44.7222 11.5133 45.1422 11.66C45.5622 11.8 45.9722 11.9667 46.3722 12.16C46.7722 12.3467 47.1289 12.5867 47.4422 12.88C47.7555 13.1667 48.0055 13.52 48.1922 13.94C48.3855 14.36 48.4822 14.87 48.4822 15.47C48.4822 16.1233 48.3689 16.7367 48.1422 17.31C47.9222 17.8767 47.5955 18.3733 47.1622 18.8C46.7355 19.22 46.2122 19.5533 45.5922 19.8C44.9722 20.04 44.2622 20.16 43.4622 20.16C43.0022 20.16 42.5489 20.1133 42.1022 20.02C41.6555 19.9333 41.2255 19.8067 40.8122 19.64C40.4055 19.4733 40.0222 19.2733 39.6622 19.04C39.3022 18.8067 38.9822 18.5467 38.7022 18.26L39.4922 16.97C39.5589 16.8767 39.6455 16.8 39.7522 16.74C39.8589 16.6733 39.9722 16.64 40.0922 16.64C40.2589 16.64 40.4389 16.71 40.6322 16.85C40.8255 16.9833 41.0555 17.1333 41.3222 17.3C41.5889 17.4667 41.8989 17.62 42.2522 17.76C42.6122 17.8933 43.0422 17.96 43.5422 17.96C44.3089 17.96 44.9022 17.78 45.3222 17.42C45.7422 17.0533 45.9522 16.53 45.9522 15.85C45.9522 15.47 45.8555 15.16 45.6622 14.92C45.4755 14.68 45.2255 14.48 44.9122 14.32C44.5989 14.1533 44.2422 14.0133 43.8422 13.9C43.4422 13.7867 43.0355 13.6633 42.6222 13.53C42.2089 13.3967 41.8022 13.2367 41.4022 13.05C41.0022 12.8633 40.6455 12.62 40.3322 12.32C40.0189 12.02 39.7655 11.6467 39.5722 11.2C39.3855 10.7467 39.2922 10.19 39.2922 9.53C39.2922 9.00333 39.3955 8.49 39.6022 7.99C39.8155 7.49 40.1222 7.04667 40.5222 6.66C40.9222 6.27333 41.4155 5.96333 42.0022 5.73C42.5889 5.49667 43.2622 5.38 44.0222 5.38C44.8755 5.38 45.6622 5.51333 46.3822 5.78C47.1022 6.04667 47.7155 6.42 48.2222 6.9L47.5522 8.17ZM66.5088 5.54V20H64.1388V10.66C64.1388 10.2867 64.1588 9.88333 64.1988 9.45L59.8288 17.66C59.6221 18.0533 59.3054 18.25 58.8788 18.25H58.4988C58.0721 18.25 57.7554 18.0533 57.5488 17.66L53.1288 9.42C53.1488 9.64 53.1654 9.85667 53.1788 10.07C53.1921 10.2833 53.1988 10.48 53.1988 10.66V20H50.8288V5.54H52.8588C52.9788 5.54 53.0821 5.54333 53.1688 5.55C53.2554 5.55667 53.3321 5.57333 53.3988 5.6C53.4721 5.62667 53.5354 5.67 53.5888 5.73C53.6488 5.79 53.7054 5.87 53.7588 5.97L58.0888 14C58.2021 14.2133 58.3054 14.4333 58.3988 14.66C58.4988 14.8867 58.5954 15.12 58.6888 15.36C58.7821 15.1133 58.8788 14.8767 58.9788 14.65C59.0788 14.4167 59.1854 14.1933 59.2988 13.98L63.5688 5.97C63.6221 5.87 63.6788 5.79 63.7388 5.73C63.7988 5.67 63.8621 5.62667 63.9288 5.6C64.0021 5.57333 64.0821 5.55667 64.1688 5.55C64.2554 5.54333 64.3588 5.54 64.4788 5.54H66.5088ZM75.555 17.83C76.075 17.83 76.5383 17.7433 76.945 17.57C77.3583 17.3967 77.705 17.1533 77.985 16.84C78.265 16.5267 78.4783 16.1467 78.625 15.7C78.7783 15.2533 78.855 14.7533 78.855 14.2V5.54H81.545V14.2C81.545 15.06 81.405 15.8567 81.125 16.59C80.8517 17.3167 80.455 17.9467 79.935 18.48C79.4217 19.0067 78.795 19.42 78.055 19.72C77.315 20.0133 76.4817 20.16 75.555 20.16C74.6217 20.16 73.785 20.0133 73.045 19.72C72.305 19.42 71.675 19.0067 71.155 18.48C70.6417 17.9467 70.245 17.3167 69.965 16.59C69.6917 15.8567 69.555 15.06 69.555 14.2V5.54H72.245V14.19C72.245 14.7433 72.3183 15.2433 72.465 15.69C72.6183 16.1367 72.835 16.52 73.115 16.84C73.4017 17.1533 73.7483 17.3967 74.155 17.57C74.5683 17.7433 75.035 17.83 75.555 17.83ZM92.2788 8.17C92.1988 8.31 92.1121 8.41333 92.0188 8.48C91.9321 8.54 91.8221 8.57 91.6888 8.57C91.5488 8.57 91.3954 8.52 91.2288 8.42C91.0688 8.31333 90.8754 8.19667 90.6488 8.07C90.4221 7.94333 90.1554 7.83 89.8488 7.73C89.5488 7.62333 89.1921 7.57 88.7788 7.57C88.4054 7.57 88.0788 7.61667 87.7988 7.71C87.5188 7.79667 87.2821 7.92 87.0888 8.08C86.9021 8.24 86.7621 8.43333 86.6688 8.66C86.5754 8.88 86.5288 9.12333 86.5288 9.39C86.5288 9.73 86.6221 10.0133 86.8088 10.24C87.0021 10.4667 87.2554 10.66 87.5688 10.82C87.8821 10.98 88.2388 11.1233 88.6388 11.25C89.0388 11.3767 89.4488 11.5133 89.8688 11.66C90.2888 11.8 90.6988 11.9667 91.0988 12.16C91.4988 12.3467 91.8554 12.5867 92.1688 12.88C92.4821 13.1667 92.7321 13.52 92.9188 13.94C93.1121 14.36 93.2088 14.87 93.2088 15.47C93.2088 16.1233 93.0954 16.7367 92.8688 17.31C92.6488 17.8767 92.3221 18.3733 91.8888 18.8C91.4621 19.22 90.9388 19.5533 90.3188 19.8C89.6988 20.04 88.9888 20.16 88.1888 20.16C87.7288 20.16 87.2754 20.1133 86.8288 20.02C86.3821 19.9333 85.9521 19.8067 85.5387 19.64C85.1321 19.4733 84.7488 19.2733 84.3888 19.04C84.0288 18.8067 83.7088 18.5467 83.4288 18.26L84.2188 16.97C84.2854 16.8767 84.3721 16.8 84.4788 16.74C84.5854 16.6733 84.6988 16.64 84.8188 16.64C84.9854 16.64 85.1654 16.71 85.3588 16.85C85.5521 16.9833 85.7821 17.1333 86.0488 17.3C86.3154 17.4667 86.6254 17.62 86.9788 17.76C87.3388 17.8933 87.7688 17.96 88.2688 17.96C89.0354 17.96 89.6288 17.78 90.0488 17.42C90.4688 17.0533 90.6788 16.53 90.6788 15.85C90.6788 15.47 90.5821 15.16 90.3888 14.92C90.2021 14.68 89.9521 14.48 89.6388 14.32C89.3254 14.1533 88.9688 14.0133 88.5688 13.9C88.1688 13.7867 87.7621 13.6633 87.3488 13.53C86.9354 13.3967 86.5288 13.2367 86.1288 13.05C85.7288 12.8633 85.3721 12.62 85.0588 12.32C84.7454 12.02 84.4921 11.6467 84.2988 11.2C84.1121 10.7467 84.0188 10.19 84.0188 9.53C84.0188 9.00333 84.1221 8.49 84.3288 7.99C84.5421 7.49 84.8488 7.04667 85.2488 6.66C85.6488 6.27333 86.1421 5.96333 86.7288 5.73C87.3154 5.49667 87.9888 5.38 88.7488 5.38C89.6021 5.38 90.3888 5.51333 91.1088 5.78C91.8288 6.04667 92.4421 6.42 92.9488 6.9L92.2788 8.17ZM104.625 14.2H100.745V18.32H98.7353V14.2H94.8753V12.37H98.7353V8.27H100.745V12.37H104.625V14.2ZM114.71 11.6H115.34C115.593 11.6 115.803 11.5667 115.97 11.5C116.137 11.4267 116.28 11.3133 116.4 11.16L120.39 6.11C120.557 5.89667 120.73 5.75 120.91 5.67C121.097 5.58333 121.33 5.54 121.61 5.54H123.93L119.06 11.55C118.773 11.9167 118.477 12.1767 118.17 12.33C118.39 12.41 118.587 12.5233 118.76 12.67C118.94 12.81 119.11 12.9967 119.27 13.23L124.29 20H121.92C121.6 20 121.36 19.9567 121.2 19.87C121.047 19.7767 120.917 19.6433 120.81 19.47L116.72 14.13C116.593 13.95 116.447 13.8233 116.28 13.75C116.113 13.6767 115.873 13.64 115.56 13.64H114.71V20H112.02V5.54H114.71V11.6ZM133.371 14.54L131.611 9.73C131.524 9.51667 131.434 9.26333 131.341 8.97C131.248 8.67667 131.154 8.36 131.061 8.02C130.974 8.36 130.884 8.68 130.791 8.98C130.698 9.27333 130.608 9.53 130.521 9.75L128.771 14.54H133.371ZM138.121 20H136.041C135.808 20 135.618 19.9433 135.471 19.83C135.324 19.71 135.214 19.5633 135.141 19.39L134.061 16.44H128.071L126.991 19.39C126.938 19.5433 126.834 19.6833 126.681 19.81C126.528 19.9367 126.338 20 126.111 20H124.011L129.701 5.54H132.441L138.121 20ZM147.818 17.7C148.084 17.7 148.294 17.7767 148.448 17.93C148.608 18.0767 148.688 18.2733 148.688 18.52V20H138.768V19.18C138.768 19.0133 138.801 18.84 138.868 18.66C138.941 18.4733 139.054 18.3067 139.208 18.16L143.598 13.76C143.964 13.3867 144.291 13.03 144.578 12.69C144.871 12.35 145.114 12.0133 145.308 11.68C145.501 11.3467 145.648 11.01 145.748 10.67C145.854 10.3233 145.908 9.96 145.908 9.58C145.908 9.23333 145.858 8.93 145.758 8.67C145.658 8.40333 145.514 8.18 145.328 8C145.148 7.82 144.928 7.68667 144.668 7.6C144.414 7.50667 144.128 7.46 143.808 7.46C143.514 7.46 143.241 7.50333 142.988 7.59C142.741 7.67 142.521 7.78667 142.328 7.94C142.134 8.08667 141.971 8.26 141.838 8.46C141.704 8.66 141.604 8.88 141.538 9.12C141.424 9.42667 141.278 9.63 141.098 9.73C140.918 9.83 140.658 9.85333 140.318 9.8L139.018 9.57C139.118 8.87667 139.311 8.27 139.598 7.75C139.884 7.22333 140.241 6.78667 140.668 6.44C141.101 6.08667 141.594 5.82333 142.148 5.65C142.708 5.47 143.308 5.38 143.948 5.38C144.614 5.38 145.224 5.48 145.778 5.68C146.331 5.87333 146.804 6.15 147.198 6.51C147.591 6.87 147.898 7.30333 148.118 7.81C148.338 8.31667 148.448 8.88 148.448 9.5C148.448 10.0333 148.368 10.5267 148.208 10.98C148.054 11.4333 147.844 11.8667 147.578 12.28C147.318 12.6933 147.011 13.0933 146.658 13.48C146.304 13.8667 145.934 14.26 145.548 14.66L142.288 17.99C142.601 17.8967 142.911 17.8267 143.218 17.78C143.531 17.7267 143.828 17.7 144.108 17.7H147.818Z" fill="white"/>
<path d="M181.968 17.196V18.5H175.464V7.036H177.008V17.196H181.968ZM188.193 13.564C188.193 13.2333 188.145 12.932 188.049 12.66C187.958 12.3827 187.822 12.1453 187.641 11.948C187.465 11.7453 187.249 11.5907 186.993 11.484C186.737 11.372 186.446 11.316 186.121 11.316C185.438 11.316 184.897 11.516 184.497 11.916C184.102 12.3107 183.857 12.86 183.761 13.564H188.193ZM189.345 17.364C189.169 17.5773 188.958 17.764 188.713 17.924C188.467 18.0787 188.203 18.2067 187.921 18.308C187.643 18.4093 187.355 18.484 187.057 18.532C186.758 18.5853 186.462 18.612 186.169 18.612C185.609 18.612 185.091 18.5187 184.617 18.332C184.147 18.14 183.739 17.8627 183.393 17.5C183.051 17.132 182.785 16.6787 182.593 16.14C182.401 15.6013 182.305 14.9827 182.305 14.284C182.305 13.7187 182.39 13.1907 182.561 12.7C182.737 12.2093 182.987 11.7853 183.313 11.428C183.638 11.0653 184.035 10.7827 184.505 10.58C184.974 10.372 185.502 10.268 186.089 10.268C186.574 10.268 187.022 10.3507 187.433 10.516C187.849 10.676 188.206 10.9107 188.505 11.22C188.809 11.524 189.046 11.9027 189.217 12.356C189.387 12.804 189.473 13.316 189.473 13.892C189.473 14.116 189.449 14.2653 189.401 14.34C189.353 14.4147 189.262 14.452 189.129 14.452H183.713C183.729 14.964 183.798 15.4093 183.921 15.788C184.049 16.1667 184.225 16.484 184.449 16.74C184.673 16.9907 184.939 17.18 185.249 17.308C185.558 17.4307 185.905 17.492 186.289 17.492C186.646 17.492 186.953 17.452 187.209 17.372C187.47 17.2867 187.694 17.196 187.881 17.1C188.067 17.004 188.222 16.916 188.345 16.836C188.473 16.7507 188.582 16.708 188.673 16.708C188.79 16.708 188.881 16.7533 188.945 16.844L189.345 17.364ZM193.647 18.628C193.007 18.628 192.514 18.4493 192.167 18.092C191.826 17.7347 191.655 17.22 191.655 16.548V11.588H190.679C190.594 11.588 190.522 11.564 190.463 11.516C190.405 11.4627 190.375 11.3827 190.375 11.276V10.708L191.703 10.54L192.031 8.036C192.047 7.956 192.082 7.892 192.135 7.844C192.194 7.79067 192.269 7.764 192.359 7.764H193.079V10.556H195.423V11.588H193.079V16.452C193.079 16.7933 193.162 17.0467 193.327 17.212C193.493 17.3773 193.706 17.46 193.967 17.46C194.117 17.46 194.245 17.4413 194.351 17.404C194.463 17.3613 194.559 17.316 194.639 17.268C194.719 17.22 194.786 17.1773 194.839 17.14C194.898 17.0973 194.949 17.076 194.991 17.076C195.066 17.076 195.133 17.1213 195.191 17.212L195.607 17.892C195.362 18.1213 195.066 18.3027 194.719 18.436C194.373 18.564 194.015 18.628 193.647 18.628ZM198.022 7.036V9.356L197.894 10.596C197.867 10.7667 197.816 10.9 197.742 10.996C197.672 11.0867 197.558 11.132 197.398 11.132C197.254 11.132 197.142 11.0867 197.062 10.996C196.987 10.9 196.936 10.7667 196.91 10.596L196.782 9.356V7.036H198.022ZM204.739 11.732C204.675 11.8493 204.576 11.908 204.443 11.908C204.363 11.908 204.272 11.8787 204.171 11.82C204.069 11.7613 203.944 11.6973 203.795 11.628C203.651 11.5533 203.477 11.4867 203.275 11.428C203.072 11.364 202.832 11.332 202.555 11.332C202.315 11.332 202.099 11.364 201.907 11.428C201.715 11.4867 201.549 11.5693 201.411 11.676C201.277 11.7827 201.173 11.908 201.099 12.052C201.029 12.1907 200.995 12.3427 200.995 12.508C200.995 12.716 201.053 12.8893 201.171 13.028C201.293 13.1667 201.453 13.2867 201.651 13.388C201.848 13.4893 202.072 13.58 202.323 13.66C202.573 13.7347 202.829 13.8173 203.091 13.908C203.357 13.9933 203.616 14.0893 203.867 14.196C204.117 14.3027 204.341 14.436 204.539 14.596C204.736 14.756 204.893 14.9533 205.011 15.188C205.133 15.4173 205.195 15.6947 205.195 16.02C205.195 16.3933 205.128 16.74 204.995 17.06C204.861 17.3747 204.664 17.6493 204.403 17.884C204.141 18.1133 203.821 18.2947 203.443 18.428C203.064 18.5613 202.627 18.628 202.131 18.628C201.565 18.628 201.053 18.5373 200.595 18.356C200.136 18.1693 199.747 17.932 199.427 17.644L199.763 17.1C199.805 17.0307 199.856 16.9773 199.915 16.94C199.973 16.9027 200.048 16.884 200.139 16.884C200.235 16.884 200.336 16.9213 200.443 16.996C200.549 17.0707 200.677 17.1533 200.827 17.244C200.981 17.3347 201.168 17.4173 201.387 17.492C201.605 17.5667 201.877 17.604 202.203 17.604C202.48 17.604 202.723 17.5693 202.931 17.5C203.139 17.4253 203.312 17.3267 203.451 17.204C203.589 17.0813 203.691 16.94 203.755 16.78C203.824 16.62 203.859 16.4493 203.859 16.268C203.859 16.044 203.797 15.86 203.675 15.716C203.557 15.5667 203.4 15.4413 203.203 15.34C203.005 15.2333 202.779 15.1427 202.523 15.068C202.272 14.988 202.013 14.9053 201.747 14.82C201.485 14.7347 201.227 14.6387 200.971 14.532C200.72 14.42 200.496 14.2813 200.299 14.116C200.101 13.9507 199.941 13.748 199.819 13.508C199.701 13.2627 199.643 12.9667 199.643 12.62C199.643 12.3107 199.707 12.0147 199.835 11.732C199.963 11.444 200.149 11.1933 200.395 10.98C200.64 10.7613 200.941 10.588 201.299 10.46C201.656 10.332 202.064 10.268 202.523 10.268C203.056 10.268 203.533 10.3533 203.955 10.524C204.381 10.6893 204.749 10.9187 205.059 11.212L204.739 11.732ZM213.522 18.628C212.882 18.628 212.389 18.4493 212.042 18.092C211.701 17.7347 211.53 17.22 211.53 16.548V11.588H210.554C210.469 11.588 210.397 11.564 210.338 11.516C210.28 11.4627 210.25 11.3827 210.25 11.276V10.708L211.578 10.54L211.906 8.036C211.922 7.956 211.957 7.892 212.01 7.844C212.069 7.79067 212.144 7.764 212.234 7.764H212.954V10.556H215.298V11.588H212.954V16.452C212.954 16.7933 213.037 17.0467 213.202 17.212C213.368 17.3773 213.581 17.46 213.842 17.46C213.992 17.46 214.12 17.4413 214.226 17.404C214.338 17.3613 214.434 17.316 214.514 17.268C214.594 17.22 214.661 17.1773 214.714 17.14C214.773 17.0973 214.824 17.076 214.866 17.076C214.941 17.076 215.008 17.1213 215.066 17.212L215.482 17.892C215.237 18.1213 214.941 18.3027 214.594 18.436C214.248 18.564 213.89 18.628 213.522 18.628ZM222.146 13.564C222.146 13.2333 222.098 12.932 222.002 12.66C221.911 12.3827 221.775 12.1453 221.594 11.948C221.418 11.7453 221.202 11.5907 220.946 11.484C220.69 11.372 220.399 11.316 220.074 11.316C219.391 11.316 218.85 11.516 218.45 11.916C218.055 12.3107 217.81 12.86 217.714 13.564H222.146ZM223.298 17.364C223.122 17.5773 222.911 17.764 222.666 17.924C222.42 18.0787 222.156 18.2067 221.874 18.308C221.596 18.4093 221.308 18.484 221.01 18.532C220.711 18.5853 220.415 18.612 220.122 18.612C219.562 18.612 219.044 18.5187 218.57 18.332C218.1 18.14 217.692 17.8627 217.346 17.5C217.004 17.132 216.738 16.6787 216.546 16.14C216.354 15.6013 216.258 14.9827 216.258 14.284C216.258 13.7187 216.343 13.1907 216.514 12.7C216.69 12.2093 216.94 11.7853 217.266 11.428C217.591 11.0653 217.988 10.7827 218.458 10.58C218.927 10.372 219.455 10.268 220.042 10.268C220.527 10.268 220.975 10.3507 221.386 10.516C221.802 10.676 222.159 10.9107 222.458 11.22C222.762 11.524 222.999 11.9027 223.17 12.356C223.34 12.804 223.426 13.316 223.426 13.892C223.426 14.116 223.402 14.2653 223.354 14.34C223.306 14.4147 223.215 14.452 223.082 14.452H217.666C217.682 14.964 217.751 15.4093 217.874 15.788C218.002 16.1667 218.178 16.484 218.402 16.74C218.626 16.9907 218.892 17.18 219.202 17.308C219.511 17.4307 219.858 17.492 220.242 17.492C220.599 17.492 220.906 17.452 221.162 17.372C221.423 17.2867 221.647 17.196 221.834 17.1C222.02 17.004 222.175 16.916 222.298 16.836C222.426 16.7507 222.535 16.708 222.626 16.708C222.743 16.708 222.834 16.7533 222.898 16.844L223.298 17.364ZM229.567 14.852C228.911 14.8733 228.351 14.9267 227.887 15.012C227.428 15.092 227.052 15.1987 226.759 15.332C226.471 15.4653 226.26 15.6227 226.127 15.804C225.999 15.9853 225.935 16.188 225.935 16.412C225.935 16.6253 225.97 16.8093 226.039 16.964C226.108 17.1187 226.202 17.2467 226.319 17.348C226.442 17.444 226.583 17.516 226.743 17.564C226.908 17.6067 227.084 17.628 227.271 17.628C227.522 17.628 227.751 17.604 227.959 17.556C228.167 17.5027 228.362 17.428 228.543 17.332C228.73 17.236 228.906 17.1213 229.071 16.988C229.242 16.8547 229.407 16.7027 229.567 16.532V14.852ZM224.967 11.54C225.415 11.108 225.898 10.7853 226.415 10.572C226.932 10.3587 227.506 10.252 228.135 10.252C228.588 10.252 228.991 10.3267 229.343 10.476C229.695 10.6253 229.991 10.8333 230.231 11.1C230.471 11.3667 230.652 11.6893 230.775 12.068C230.898 12.4467 230.959 12.8627 230.959 13.316V18.5H230.327C230.188 18.5 230.082 18.4787 230.007 18.436C229.932 18.388 229.874 18.2973 229.831 18.164L229.671 17.396C229.458 17.5933 229.25 17.7693 229.047 17.924C228.844 18.0733 228.631 18.2013 228.407 18.308C228.183 18.4093 227.943 18.4867 227.687 18.54C227.436 18.5987 227.156 18.628 226.847 18.628C226.532 18.628 226.236 18.5853 225.959 18.5C225.682 18.4093 225.439 18.276 225.231 18.1C225.028 17.924 224.866 17.7027 224.743 17.436C224.626 17.164 224.567 16.844 224.567 16.476C224.567 16.156 224.655 15.8493 224.831 15.556C225.007 15.2573 225.292 14.9933 225.687 14.764C226.082 14.5347 226.596 14.348 227.231 14.204C227.866 14.0547 228.644 13.9693 229.567 13.948V13.316C229.567 12.6867 229.431 12.212 229.159 11.892C228.887 11.5667 228.49 11.404 227.967 11.404C227.615 11.404 227.319 11.4493 227.079 11.54C226.844 11.6253 226.639 11.724 226.463 11.836C226.292 11.9427 226.143 12.0413 226.015 12.132C225.892 12.2173 225.77 12.26 225.647 12.26C225.551 12.26 225.468 12.236 225.399 12.188C225.33 12.1347 225.271 12.0707 225.223 11.996L224.967 11.54ZM238.768 11.836C238.725 11.8947 238.683 11.94 238.64 11.972C238.597 12.004 238.539 12.02 238.464 12.02C238.384 12.02 238.296 11.988 238.2 11.924C238.104 11.8547 237.984 11.78 237.84 11.7C237.701 11.62 237.528 11.548 237.32 11.484C237.117 11.4147 236.867 11.38 236.568 11.38C236.168 11.38 235.816 11.452 235.512 11.596C235.208 11.7347 234.952 11.9373 234.744 12.204C234.541 12.4707 234.387 12.7933 234.28 13.172C234.179 13.5507 234.128 13.9747 234.128 14.444C234.128 14.9347 234.184 15.372 234.296 15.756C234.408 16.1347 234.565 16.4547 234.768 16.716C234.976 16.972 235.224 17.1693 235.512 17.308C235.805 17.4413 236.133 17.508 236.496 17.508C236.843 17.508 237.128 17.468 237.352 17.388C237.576 17.3027 237.76 17.2093 237.904 17.108C238.053 17.0067 238.176 16.916 238.272 16.836C238.373 16.7507 238.472 16.708 238.568 16.708C238.685 16.708 238.776 16.7533 238.84 16.844L239.24 17.364C239.064 17.5827 238.864 17.7693 238.64 17.924C238.416 18.0787 238.173 18.2093 237.912 18.316C237.656 18.4173 237.387 18.492 237.104 18.54C236.821 18.588 236.533 18.612 236.24 18.612C235.733 18.612 235.261 18.5187 234.824 18.332C234.392 18.1453 234.016 17.876 233.696 17.524C233.376 17.1667 233.125 16.7293 232.944 16.212C232.763 15.6947 232.672 15.1053 232.672 14.444C232.672 13.8413 232.755 13.284 232.92 12.772C233.091 12.26 233.336 11.82 233.656 11.452C233.981 11.0787 234.379 10.788 234.848 10.58C235.323 10.372 235.867 10.268 236.48 10.268C237.051 10.268 237.552 10.3613 237.984 10.548C238.421 10.7293 238.808 10.988 239.144 11.324L238.768 11.836ZM242.201 11.476C242.547 11.108 242.931 10.8147 243.353 10.596C243.774 10.3773 244.259 10.268 244.809 10.268C245.251 10.268 245.641 10.3427 245.977 10.492C246.318 10.636 246.601 10.844 246.825 11.116C247.054 11.3827 247.227 11.7053 247.345 12.084C247.462 12.4627 247.521 12.8813 247.521 13.34V18.5H246.089V13.34C246.089 12.7267 245.947 12.252 245.665 11.916C245.387 11.5747 244.963 11.404 244.393 11.404C243.971 11.404 243.577 11.5053 243.209 11.708C242.846 11.9107 242.51 12.1853 242.201 12.532V18.5H240.769V6.716H242.201V11.476ZM259.208 13.564C259.208 13.2333 259.16 12.932 259.064 12.66C258.974 12.3827 258.838 12.1453 258.656 11.948C258.48 11.7453 258.264 11.5907 258.008 11.484C257.752 11.372 257.462 11.316 257.136 11.316C256.454 11.316 255.912 11.516 255.512 11.916C255.118 12.3107 254.872 12.86 254.776 13.564H259.208ZM260.36 17.364C260.184 17.5773 259.974 17.764 259.728 17.924C259.483 18.0787 259.219 18.2067 258.936 18.308C258.659 18.4093 258.371 18.484 258.072 18.532C257.774 18.5853 257.478 18.612 257.184 18.612C256.624 18.612 256.107 18.5187 255.632 18.332C255.163 18.14 254.755 17.8627 254.408 17.5C254.067 17.132 253.8 16.6787 253.608 16.14C253.416 15.6013 253.32 14.9827 253.32 14.284C253.32 13.7187 253.406 13.1907 253.576 12.7C253.752 12.2093 254.003 11.7853 254.328 11.428C254.654 11.0653 255.051 10.7827 255.52 10.58C255.99 10.372 256.518 10.268 257.104 10.268C257.59 10.268 258.038 10.3507 258.448 10.516C258.864 10.676 259.222 10.9107 259.52 11.22C259.824 11.524 260.062 11.9027 260.232 12.356C260.403 12.804 260.488 13.316 260.488 13.892C260.488 14.116 260.464 14.2653 260.416 14.34C260.368 14.4147 260.278 14.452 260.144 14.452H254.728C254.744 14.964 254.814 15.4093 254.936 15.788C255.064 16.1667 255.24 16.484 255.464 16.74C255.688 16.9907 255.955 17.18 256.264 17.308C256.574 17.4307 256.92 17.492 257.304 17.492C257.662 17.492 257.968 17.452 258.224 17.372C258.486 17.2867 258.71 17.196 258.896 17.1C259.083 17.004 259.238 16.916 259.36 16.836C259.488 16.7507 259.598 16.708 259.688 16.708C259.806 16.708 259.896 16.7533 259.96 16.844L260.36 17.364ZM266.629 14.852C265.973 14.8733 265.413 14.9267 264.949 15.012C264.491 15.092 264.115 15.1987 263.821 15.332C263.533 15.4653 263.323 15.6227 263.189 15.804C263.061 15.9853 262.997 16.188 262.997 16.412C262.997 16.6253 263.032 16.8093 263.101 16.964C263.171 17.1187 263.264 17.2467 263.381 17.348C263.504 17.444 263.645 17.516 263.805 17.564C263.971 17.6067 264.147 17.628 264.333 17.628C264.584 17.628 264.813 17.604 265.021 17.556C265.229 17.5027 265.424 17.428 265.605 17.332C265.792 17.236 265.968 17.1213 266.133 16.988C266.304 16.8547 266.469 16.7027 266.629 16.532V14.852ZM262.029 11.54C262.477 11.108 262.96 10.7853 263.477 10.572C263.995 10.3587 264.568 10.252 265.197 10.252C265.651 10.252 266.053 10.3267 266.405 10.476C266.757 10.6253 267.053 10.8333 267.293 11.1C267.533 11.3667 267.715 11.6893 267.837 12.068C267.96 12.4467 268.021 12.8627 268.021 13.316V18.5H267.389C267.251 18.5 267.144 18.4787 267.069 18.436C266.995 18.388 266.936 18.2973 266.893 18.164L266.733 17.396C266.52 17.5933 266.312 17.7693 266.109 17.924C265.907 18.0733 265.693 18.2013 265.469 18.308C265.245 18.4093 265.005 18.4867 264.749 18.54C264.499 18.5987 264.219 18.628 263.909 18.628C263.595 18.628 263.299 18.5853 263.021 18.5C262.744 18.4093 262.501 18.276 262.293 18.1C262.091 17.924 261.928 17.7027 261.805 17.436C261.688 17.164 261.629 16.844 261.629 16.476C261.629 16.156 261.717 15.8493 261.893 15.556C262.069 15.2573 262.355 14.9933 262.749 14.764C263.144 14.5347 263.659 14.348 264.293 14.204C264.928 14.0547 265.707 13.9693 266.629 13.948V13.316C266.629 12.6867 266.493 12.212 266.221 11.892C265.949 11.5667 265.552 11.404 265.029 11.404C264.677 11.404 264.381 11.4493 264.141 11.54C263.907 11.6253 263.701 11.724 263.525 11.836C263.355 11.9427 263.205 12.0413 263.077 12.132C262.955 12.2173 262.832 12.26 262.709 12.26C262.613 12.26 262.531 12.236 262.461 12.188C262.392 12.1347 262.333 12.0707 262.285 11.996L262.029 11.54ZM275.831 11.836C275.788 11.8947 275.745 11.94 275.703 11.972C275.66 12.004 275.601 12.02 275.527 12.02C275.447 12.02 275.359 11.988 275.263 11.924C275.167 11.8547 275.047 11.78 274.903 11.7C274.764 11.62 274.591 11.548 274.383 11.484C274.18 11.4147 273.929 11.38 273.631 11.38C273.231 11.38 272.879 11.452 272.575 11.596C272.271 11.7347 272.015 11.9373 271.807 12.204C271.604 12.4707 271.449 12.7933 271.343 13.172C271.241 13.5507 271.191 13.9747 271.191 14.444C271.191 14.9347 271.247 15.372 271.359 15.756C271.471 16.1347 271.628 16.4547 271.831 16.716C272.039 16.972 272.287 17.1693 272.575 17.308C272.868 17.4413 273.196 17.508 273.559 17.508C273.905 17.508 274.191 17.468 274.415 17.388C274.639 17.3027 274.823 17.2093 274.967 17.108C275.116 17.0067 275.239 16.916 275.335 16.836C275.436 16.7507 275.535 16.708 275.631 16.708C275.748 16.708 275.839 16.7533 275.903 16.844L276.303 17.364C276.127 17.5827 275.927 17.7693 275.703 17.924C275.479 18.0787 275.236 18.2093 274.975 18.316C274.719 18.4173 274.449 18.492 274.167 18.54C273.884 18.588 273.596 18.612 273.303 18.612C272.796 18.612 272.324 18.5187 271.887 18.332C271.455 18.1453 271.079 17.876 270.759 17.524C270.439 17.1667 270.188 16.7293 270.007 16.212C269.825 15.6947 269.735 15.1053 269.735 14.444C269.735 13.8413 269.817 13.284 269.983 12.772C270.153 12.26 270.399 11.82 270.719 11.452C271.044 11.0787 271.441 10.788 271.911 10.58C272.385 10.372 272.929 10.268 273.543 10.268C274.113 10.268 274.615 10.3613 275.047 10.548C275.484 10.7293 275.871 10.988 276.207 11.324L275.831 11.836ZM279.263 11.476C279.61 11.108 279.994 10.8147 280.415 10.596C280.836 10.3773 281.322 10.268 281.871 10.268C282.314 10.268 282.703 10.3427 283.039 10.492C283.38 10.636 283.663 10.844 283.887 11.116C284.116 11.3827 284.29 11.7053 284.407 12.084C284.524 12.4627 284.583 12.8813 284.583 13.34V18.5H283.151V13.34C283.151 12.7267 283.01 12.252 282.727 11.916C282.45 11.5747 282.026 11.404 281.455 11.404C281.034 11.404 280.639 11.5053 280.271 11.708C279.908 11.9107 279.572 12.1853 279.263 12.532V18.5H277.831V6.716H279.263V11.476ZM294.263 10.268C294.855 10.268 295.388 10.3667 295.863 10.564C296.337 10.7613 296.743 11.0413 297.079 11.404C297.415 11.7667 297.671 12.2067 297.847 12.724C298.028 13.236 298.119 13.8093 298.119 14.444C298.119 15.084 298.028 15.66 297.847 16.172C297.671 16.684 297.415 17.1213 297.079 17.484C296.743 17.8467 296.337 18.1267 295.863 18.324C295.388 18.516 294.855 18.612 294.263 18.612C293.665 18.612 293.127 18.516 292.647 18.324C292.172 18.1267 291.767 17.8467 291.431 17.484C291.095 17.1213 290.836 16.684 290.655 16.172C290.479 15.66 290.391 15.084 290.391 14.444C290.391 13.8093 290.479 13.236 290.655 12.724C290.836 12.2067 291.095 11.7667 291.431 11.404C291.767 11.0413 292.172 10.7613 292.647 10.564C293.127 10.3667 293.665 10.268 294.263 10.268ZM294.263 17.5C295.063 17.5 295.66 17.2333 296.055 16.7C296.449 16.1613 296.647 15.412 296.647 14.452C296.647 13.4867 296.449 12.7347 296.055 12.196C295.66 11.6573 295.063 11.388 294.263 11.388C293.857 11.388 293.503 11.4573 293.199 11.596C292.9 11.7347 292.649 11.9347 292.447 12.196C292.249 12.4573 292.1 12.78 291.999 13.164C291.903 13.5427 291.855 13.972 291.855 14.452C291.855 15.412 292.052 16.1613 292.447 16.7C292.847 17.2333 293.452 17.5 294.263 17.5ZM302.272 18.628C301.632 18.628 301.139 18.4493 300.792 18.092C300.451 17.7347 300.28 17.22 300.28 16.548V11.588H299.304C299.219 11.588 299.147 11.564 299.088 11.516C299.03 11.4627 299 11.3827 299 11.276V10.708L300.328 10.54L300.656 8.036C300.672 7.956 300.707 7.892 300.76 7.844C300.819 7.79067 300.894 7.764 300.984 7.764H301.704V10.556H304.048V11.588H301.704V16.452C301.704 16.7933 301.787 17.0467 301.952 17.212C302.118 17.3773 302.331 17.46 302.592 17.46C302.742 17.46 302.87 17.4413 302.976 17.404C303.088 17.3613 303.184 17.316 303.264 17.268C303.344 17.22 303.411 17.1773 303.464 17.14C303.523 17.0973 303.574 17.076 303.616 17.076C303.691 17.076 303.758 17.1213 303.816 17.212L304.232 17.892C303.987 18.1213 303.691 18.3027 303.344 18.436C302.998 18.564 302.64 18.628 302.272 18.628ZM306.951 11.476C307.297 11.108 307.681 10.8147 308.103 10.596C308.524 10.3773 309.009 10.268 309.559 10.268C310.001 10.268 310.391 10.3427 310.727 10.492C311.068 10.636 311.351 10.844 311.575 11.116C311.804 11.3827 311.977 11.7053 312.095 12.084C312.212 12.4627 312.271 12.8813 312.271 13.34V18.5H310.839V13.34C310.839 12.7267 310.697 12.252 310.415 11.916C310.137 11.5747 309.713 11.404 309.143 11.404C308.721 11.404 308.327 11.5053 307.959 11.708C307.596 11.9107 307.26 12.1853 306.951 12.532V18.5H305.519V6.716H306.951V11.476ZM319.865 13.564C319.865 13.2333 319.817 12.932 319.721 12.66C319.63 12.3827 319.494 12.1453 319.313 11.948C319.137 11.7453 318.921 11.5907 318.665 11.484C318.409 11.372 318.118 11.316 317.793 11.316C317.11 11.316 316.569 11.516 316.169 11.916C315.774 12.3107 315.529 12.86 315.433 13.564H319.865ZM321.017 17.364C320.841 17.5773 320.63 17.764 320.385 17.924C320.139 18.0787 319.875 18.2067 319.593 18.308C319.315 18.4093 319.027 18.484 318.729 18.532C318.43 18.5853 318.134 18.612 317.841 18.612C317.281 18.612 316.763 18.5187 316.289 18.332C315.819 18.14 315.411 17.8627 315.065 17.5C314.723 17.132 314.457 16.6787 314.265 16.14C314.073 15.6013 313.977 14.9827 313.977 14.284C313.977 13.7187 314.062 13.1907 314.233 12.7C314.409 12.2093 314.659 11.7853 314.985 11.428C315.31 11.0653 315.707 10.7827 316.177 10.58C316.646 10.372 317.174 10.268 317.761 10.268C318.246 10.268 318.694 10.3507 319.105 10.516C319.521 10.676 319.878 10.9107 320.177 11.22C320.481 11.524 320.718 11.9027 320.889 12.356C321.059 12.804 321.145 13.316 321.145 13.892C321.145 14.116 321.121 14.2653 321.073 14.34C321.025 14.4147 320.934 14.452 320.801 14.452H315.385C315.401 14.964 315.47 15.4093 315.593 15.788C315.721 16.1667 315.897 16.484 316.121 16.74C316.345 16.9907 316.611 17.18 316.921 17.308C317.23 17.4307 317.577 17.492 317.961 17.492C318.318 17.492 318.625 17.452 318.881 17.372C319.142 17.2867 319.366 17.196 319.553 17.1C319.739 17.004 319.894 16.916 320.017 16.836C320.145 16.7507 320.254 16.708 320.345 16.708C320.462 16.708 320.553 16.7533 320.617 16.844L321.017 17.364ZM324.246 12.02C324.502 11.4653 324.816 11.0333 325.19 10.724C325.563 10.4093 326.019 10.252 326.558 10.252C326.728 10.252 326.891 10.2707 327.046 10.308C327.206 10.3453 327.347 10.404 327.47 10.484L327.366 11.548C327.334 11.6813 327.254 11.748 327.126 11.748C327.051 11.748 326.942 11.732 326.798 11.7C326.654 11.668 326.491 11.652 326.31 11.652C326.054 11.652 325.824 11.6893 325.622 11.764C325.424 11.8387 325.246 11.9507 325.086 12.1C324.931 12.244 324.79 12.4253 324.662 12.644C324.539 12.8573 324.427 13.1027 324.326 13.38V18.5H322.894V10.396H323.71C323.864 10.396 323.971 10.4253 324.03 10.484C324.088 10.5427 324.128 10.644 324.15 10.788L324.246 12.02Z" fill="white"/>
</svg>
